<?xml version="1.0" encoding="UTF-8" standalone="no"?>
<svg width="18px" height="17px" viewBox="0 0 18 17" version="1.1" xmlns="http://www.w3.org/2000/svg" xmlns:xlink="http://www.w3.org/1999/xlink" xmlns:sketch="http://www.bohemiancoding.com/sketch/ns">
    <!-- Generator: Sketch 3.4.2 (15857) - http://www.bohemiancoding.com/sketch -->
    <title>Page 1 Copy 3</title>
    <desc>Created with Sketch.</desc>
    <defs></defs>
    <g id="Page-1" stroke="none" stroke-width="1" fill="none" fill-rule="evenodd" sketch:type="MSPage">
        <g id="Movie" sketch:type="MSLayerGroup" transform="translate(-83.000000, -229.000000)" fill="#FFFFFF" opacity="0.2">
            <g id="Group" transform="translate(18.000000, 230.000000)" sketch:type="MSShapeGroup">
                <path d="M73.1368821,0.626852439 L72.138206,3.69919735 L68.907148,3.69919735 C68.5146853,3.69919735 68.1652607,3.95230622 68.044626,4.32604979 C67.9228713,4.69915339 68.0559855,5.10841539 68.3740515,5.33976522 L70.9883365,7.23968169 L69.9896604,10.3126666 C69.8677458,10.6857702 70.0008599,11.0950322 70.318926,11.326382 C70.478279,11.4418969 70.6657907,11.4994944 70.8520225,11.4994944 C71.0395343,11.4994944 71.227046,11.4418969 71.3851191,11.326382 L73.9994041,9.42646554 L76.6136892,11.326382 C76.7717622,11.4418969 76.959274,11.4994944 77.1467858,11.4994944 C77.3330176,11.4994944 77.5205293,11.4418969 77.6798823,11.326382 C77.9973084,11.0950322 78.1310625,10.6857702 78.0093078,10.3120266 L77.0104717,7.24016166 L79.6260367,5.34088517 C79.9434628,5.11033531 80.0772169,4.70091331 79.9554623,4.32716974 C79.8335476,3.95358617 79.4854029,3.7004773 79.0929402,3.7004773 L75.8606023,3.7004773 L74.8619262,0.627332417 C74.7400116,0.253108871 74.3918669,0.000479978896 73.9994041,0 C73.6069414,0 73.2575168,0.253108871 73.1368821,0.626852439 Z" id="Page-1-Copy-3"></path>
            </g>
        </g>
    </g>
</svg>