<?xml version="1.0" encoding="UTF-8" standalone="no"?>
<svg width="28px" height="24px" viewBox="0 0 28 24" version="1.1" xmlns="http://www.w3.org/2000/svg" xmlns:xlink="http://www.w3.org/1999/xlink" xmlns:sketch="http://www.bohemiancoding.com/sketch/ns">
    <!-- Generator: Sketch 3.4.2 (15857) - http://www.bohemiancoding.com/sketch -->
    <title>ic_subtitles_24px</title>
    <desc>Created with Sketch.</desc>
    <defs></defs>
    <g id="Page-1" stroke="none" stroke-width="1" fill="none" fill-rule="evenodd" sketch:type="MSPage">
        <g id="Episode" sketch:type="MSLayerGroup" transform="translate(-19.000000, -431.000000)">
            <g id="Grup" transform="translate(-5.000000, 416.000000)" sketch:type="MSShapeGroup">
                <g id="Subtitles-+-Quality-+-Trailer">
                    <g id="Subtitles">
                        <g id="ic_subtitles_24px" transform="translate(26.000000, 13.000000)">
                            <g id="Group">
                                <path d="M0,0 L24,0 L24,24 L0,24 L0,0 Z" id="Shape"></path>
                                <path d="M20,4 L4,4 C2.9,4 2,4.9 2,6 L2,18 C2,19.1 2.9,20 4,20 L20,20 C21.1,20 22,19.1 22,18 L22,6 C22,4.9 21.1,4 20,4 L20,4 Z M4,12 L8,12 L8,14 L4,14 L4,12 L4,12 Z M14,18 L4,18 L4,16 L14,16 L14,18 L14,18 Z M20,18 L16,18 L16,16 L20,16 L20,18 L20,18 Z M20,14 L10,14 L10,12 L20,12 L20,14 L20,14 Z" id="Shape" fill="#FFFFFF"></path>
                            </g>
                        </g>
                    </g>
                </g>
            </g>
        </g>
    </g>
</svg>