<?xml version="1.0" encoding="UTF-8" standalone="no"?>
<svg width="26px" height="24px" viewBox="0 0 26 24" version="1.1" xmlns="http://www.w3.org/2000/svg" xmlns:xlink="http://www.w3.org/1999/xlink" xmlns:sketch="http://www.bohemiancoding.com/sketch/ns">
    <!-- Generator: Sketch 3.4.2 (15857) - http://www.bohemiancoding.com/sketch -->
    <title>ic_high_quality_24px</title>
    <desc>Created with Sketch.</desc>
    <defs></defs>
    <g id="Page-1" stroke="none" stroke-width="1" fill="none" fill-rule="evenodd" sketch:type="MSPage">
        <g id="Episode" sketch:type="MSLayerGroup" transform="translate(-20.000000, -482.000000)" fill="#FFFFFF">
            <g id="Grup" transform="translate(-5.000000, 416.000000)" sketch:type="MSShapeGroup">
                <g id="Subtitles-+-Quality-+-Trailer">
                    <g id="Quality" transform="translate(0.000000, 51.000000)">
                        <g id="ic_high_quality_24px" transform="translate(29.000000, 17.000000)">
                            <g id="Group">
                                <path d="M16,0 L2,0 C0.89,0 0,0.9 0,2 L0,14 C0,15.1 0.89,16 2,16 L16,16 C17.1,16 18,15.1 18,14 L18,2 C18,0.9 17.1,0 16,0 L16,0 Z M8,11 L6.5,11 L6.5,9 L4.5,9 L4.5,11 L3,11 L3,5 L4.5,5 L4.5,7.5 L6.5,7.5 L6.5,5 L8,5 L8,11 L8,11 Z M15,10 C15,10.55 14.55,11 14,11 L13.25,11 L13.25,12.5 L11.75,12.5 L11.75,11 L11,11 C10.45,11 10,10.55 10,10 L10,6 C10,5.45 10.45,5 11,5 L14,5 C14.55,5 15,5.45 15,6 L15,10 L15,10 Z M11.5,9.5 L13.5,9.5 L13.5,6.5 L11.5,6.5 L11.5,9.5 L11.5,9.5 Z" id="Shape"></path>
                            </g>
                        </g>
                    </g>
                </g>
            </g>
        </g>
    </g>
</svg>