<?xml version="1.0" encoding="UTF-8" standalone="no"?>
<svg width="26px" height="22px" viewBox="0 0 26 22" version="1.1" xmlns="http://www.w3.org/2000/svg" xmlns:xlink="http://www.w3.org/1999/xlink" xmlns:sketch="http://www.bohemiancoding.com/sketch/ns">
    <!-- Generator: Sketch 3.4.2 (15857) - http://www.bohemiancoding.com/sketch -->
    <title>Tv_icon</title>
    <desc>Created with Sketch.</desc>
    <defs></defs>
    <g id="Page-1" stroke="none" stroke-width="1" fill="none" fill-rule="evenodd" sketch:type="MSPage">
        <g id="Home" sketch:type="MSLayerGroup" transform="translate(-77.000000, -18.000000)" fill="#FFFFFF" opacity="0.4">
            <g id="Box" transform="translate(0.000000, 7.000000)" sketch:type="MSShapeGroup">
                <g id="Header" transform="translate(-6.000000, 0.000000)">
                    <g id="Tab" transform="translate(6.000000, 0.000000)">
                        <g id="Tab-TV" transform="translate(81.000000, 12.000000)">
                            <path d="M16.3120929,2.79797949 L10.6390531,2.79797949 L12.4765078,0.959710495 C12.6958082,0.740138721 12.6958082,0.384047045 12.4765078,0.164475271 C12.2569361,-0.0548250905 11.9008444,-0.0548250905 11.6812726,0.164475271 L9.04885404,2.79797949 L8.9522316,2.79797949 L6.31872738,0.164475271 C6.09915561,-0.0548250905 5.74197829,-0.0548250905 5.52267793,0.164475271 C5.30310615,0.384047045 5.30310615,0.740138721 5.52267793,0.959710495 L7.36094692,2.79797949 L1.68790712,2.79797949 C0.755880579,2.79797949 0,3.55413148 0,4.48588661 L0,13.4858866 C0,14.4179131 0.755880579,15.1737937 1.68790712,15.1737937 L16.3120929,15.1737937 C17.2441194,15.1737937 18,14.4179131 18,13.4858866 L18,4.48588661 C18,3.55413148 17.2452051,2.79797949 16.3120929,2.79797949 L16.3120929,2.79797949 Z M12.9376357,12.361158 C12.9376357,12.9824186 12.4338963,13.4858866 11.8126357,13.4858866 L3.37554282,13.4858866 C2.75428227,13.4858866 2.25081423,12.9824186 2.25081423,12.361158 L2.25081423,6.17379373 C2.25081423,5.55253317 2.75428227,5.04879373 3.37554282,5.04879373 L11.8126357,5.04879373 C12.4338963,5.04879373 12.9376357,5.55253317 12.9376357,6.17379373 L12.9376357,12.361158 Z M15.7502714,12.361158 C15.1290109,12.361158 14.6255428,11.8574186 14.6255428,11.236158 C14.6255428,10.6138118 15.1290109,10.1114294 15.7502714,10.1114294 C16.371532,10.1114294 16.8752714,10.6148975 16.8752714,11.236158 C16.8752714,11.8574186 16.371532,12.361158 15.7502714,12.361158 L15.7502714,12.361158 Z M15.7502714,8.42352232 C15.1290109,8.42352232 14.6255428,7.92005428 14.6255428,7.29879373 C14.6255428,6.67726176 15.1290109,6.17379373 15.7502714,6.17379373 C16.371532,6.17379373 16.8752714,6.67726176 16.8752714,7.29879373 C16.8752714,7.92005428 16.371532,8.42352232 15.7502714,8.42352232 L15.7502714,8.42352232 Z" id="Tv_icon"></path>
                        </g>
                    </g>
                </g>
            </g>
        </g>
    </g>
</svg>