<?xml version="1.0" encoding="UTF-8" standalone="no"?>
<svg width="16px" height="16px" viewBox="0 0 16 16" version="1.1" xmlns="http://www.w3.org/2000/svg" xmlns:xlink="http://www.w3.org/1999/xlink" xmlns:sketch="http://www.bohemiancoding.com/sketch/ns">
    <!-- Generator: Sketch 3.4.1 (15681) - http://www.bohemiancoding.com/sketch -->
    <title>Page 1@2x</title>
    <desc>Created with Sketch.</desc>
    <defs></defs>
    <g id="Page-1" stroke="none" stroke-width="1" fill="none" fill-rule="evenodd" sketch:type="MSPage">
        <g sketch:type="MSLayerGroup" fill="#FFFFFF">
            <path d="M8,15.9809855 C3.5942029,15.9809855 0.0190144928,12.4057971 0.0190144928,8 C0.0190144928,3.5942029 3.5942029,0.0190144928 8,0.0190144928 C12.4057971,0.0190144928 15.9809855,3.5942029 15.9809855,8 C15.9809855,9.85507246 15.3433043,11.6521739 14.1648696,13.0824348 C13.8170435,13.4882319 13.2183188,13.5462029 12.8125217,13.2173913 C12.4067246,12.8695652 12.3487536,12.2708406 12.6775652,11.8650435 C13.5661449,10.7826087 14.0498551,9.43026087 14.0498551,8.01994203 C14.0498551,4.69657971 11.3442319,1.97194203 8.00185507,1.97194203 C4.67849275,1.97194203 1.95385507,4.67756522 1.95385507,8.01994203 C1.95385507,11.3632464 4.65947826,14.067942 8.00185507,14.067942 C8.5426087,14.067942 8.96834783,14.4927536 8.96834783,15.0344348 C8.96834783,15.5751884 8.54075362,15.9809855 8,15.9809855 L8,15.9809855 Z" id="Fill-1" sketch:type="MSShapeGroup"></path>
            <path d="M10.5117681,3.82608696 C10.0869565,3.82608696 9.66121739,3.98098551 9.35234783,4.30886957 C8.71466667,4.94655072 8.71466667,5.99002899 9.35234783,6.64672464 C9.68115942,6.97553623 10.0869565,7.12950725 10.5117681,7.12950725 C10.9365797,7.12950725 11.3623188,6.9746087 11.6711884,6.64672464 C12.3088696,6.00904348 12.3088696,4.96556522 11.6711884,4.30886957 C11.3623188,4 10.9375072,3.82608696 10.5117681,3.82608696 L10.5117681,3.82608696 Z" id="Fill-2" sketch:type="MSShapeGroup"></path>
            <path d="M5.48823188,8.86956522 C5.06342029,8.86956522 4.63768116,9.02446377 4.32881159,9.35234783 C3.69113043,9.99002899 3.69113043,11.0335072 4.32881159,11.6902029 C4.65762319,12.0190145 5.06342029,12.1729855 5.48823188,12.1729855 C5.91304348,12.1729855 6.33878261,12.018087 6.64765217,11.6902029 C7.28533333,11.0525217 7.28533333,10.0090435 6.64765217,9.35234783 C6.31884058,9.02446377 5.91304348,8.86956522 5.48823188,8.86956522 L5.48823188,8.86956522 Z" id="Fill-3" sketch:type="MSShapeGroup"></path>
            <path d="M10.5117681,8.86956522 C10.0869565,8.86956522 9.66121739,9.02446377 9.35234783,9.35234783 C8.71466667,9.99002899 8.71466667,11.0335072 9.35234783,11.6902029 C9.68115942,12.0190145 10.0869565,12.1729855 10.5117681,12.1729855 C10.9365797,12.1729855 11.3623188,12.018087 11.6711884,11.6902029 C12.3088696,11.0525217 12.3088696,10.0090435 11.6711884,9.35234783 C11.3623188,9.02446377 10.9375072,8.86956522 10.5117681,8.86956522 L10.5117681,8.86956522 Z" id="Fill-4" sketch:type="MSShapeGroup"></path>
            <path d="M5.48823188,3.82608696 C5.06342029,3.82608696 4.63768116,3.98098551 4.32881159,4.30886957 C3.69113043,4.94655072 3.69113043,5.99002899 4.32881159,6.64672464 C4.65762319,6.97553623 5.08243478,7.12950725 5.48823188,7.12950725 C5.91304348,7.12950725 6.33878261,6.9746087 6.64765217,6.64672464 C7.28533333,6.00904348 7.28533333,4.96556522 6.64765217,4.30886957 C6.31884058,4 5.91304348,3.82608696 5.48823188,3.82608696 L5.48823188,3.82608696 Z" id="Fill-5" sketch:type="MSShapeGroup"></path>
            <path d="M8,7.2653913 C7.80707246,7.2653913 7.63315942,7.34237681 7.47826087,7.47826087 C7.1884058,7.76811594 7.1884058,8.23188406 7.47826087,8.52173913 C7.61321739,8.65669565 7.80707246,8.7346087 8,8.7346087 C8.19292754,8.7346087 8.36684058,8.65762319 8.52173913,8.52173913 C8.8115942,8.23188406 8.8115942,7.76811594 8.52173913,7.47826087 C8.36684058,7.34330435 8.19292754,7.2653913 8,7.2653913 L8,7.2653913 Z" id="Fill-6" sketch:type="MSShapeGroup"></path>
            <path d="M15.0144928,15.9809855 L7.92301449,15.9809855 C7.38226087,15.9809855 6.95652174,15.5561739 6.95652174,15.0144928 C6.95652174,14.4737391 7.38133333,14.048 7.92301449,14.048 L15.0144928,14.048 C15.5552464,14.048 15.9809855,14.4728116 15.9809855,15.0144928 C15.9809855,15.5552464 15.5362319,15.9809855 15.0144928,15.9809855 L15.0144928,15.9809855 Z" id="Fill-7" sketch:type="MSShapeGroup"></path>
        </g>
    </g>
</svg>